<?xml version="1.0" standalone="no"?>
<!DOCTYPE svg PUBLIC "-//W3C//DTD SVG 20010904//EN"
 "http://www.w3.org/TR/2001/REC-SVG-20010904/DTD/svg10.dtd">
<svg version="1.0" xmlns="http://www.w3.org/2000/svg"
 width="784.000000pt" height="814.000000pt" viewBox="0 0 784.000000 814.000000"
 preserveAspectRatio="xMidYMid meet">

<g transform="translate(0.000000,814.000000) scale(0.100000,-0.100000)"
fill="#228B22" stroke="none">
<path d="M3937 8103 c-4 -21 -7 -50 -7 -65 0 -16 -4 -28 -10 -28 -5 0 -10 -13
-10 -29 0 -17 -4 -33 -10 -36 -5 -3 -10 -15 -10 -26 0 -10 -4 -19 -9 -19 -5 0
-12 -20 -15 -45 -4 -25 -11 -45 -15 -45 -5 0 -11 -14 -15 -31 -3 -17 -15 -43
-26 -59 -11 -15 -20 -32 -20 -38 0 -5 -6 -15 -14 -21 -8 -7 -18 -26 -21 -42
-4 -16 -10 -29 -15 -29 -4 0 -11 -11 -14 -25 -3 -13 -15 -29 -26 -35 -11 -6
-20 -15 -20 -21 0 -5 -11 -22 -25 -37 -14 -15 -25 -30 -25 -34 0 -4 -18 -25
-40 -45 -22 -21 -40 -44 -40 -51 0 -7 -11 -17 -25 -22 -31 -12 -65 -46 -65
-65 0 -13 21 -15 130 -15 109 0 130 -2 130 -15 0 -8 -7 -15 -15 -15 -8 0 -15
-8 -15 -19 0 -21 -33 -97 -55 -125 -8 -11 -15 -28 -15 -38 0 -10 -7 -18 -15
-18 -8 0 -15 -4 -15 -9 0 -5 -6 -16 -12 -23 -7 -7 -20 -26 -28 -41 -22 -43
-220 -237 -242 -237 -6 0 -18 -8 -27 -17 -19 -21 -49 -41 -73 -49 -10 -4 -18
-10 -18 -14 0 -5 -9 -12 -21 -15 -28 -9 -59 -37 -53 -47 3 -4 111 -8 240 -8
129 0 234 -3 234 -6 0 -3 -9 -17 -20 -31 -11 -14 -20 -32 -20 -41 0 -8 -11
-25 -25 -38 -14 -13 -25 -26 -25 -29 0 -10 -62 -99 -74 -107 -6 -4 -11 -11
-11 -16 0 -5 -12 -22 -27 -38 -14 -16 -61 -68 -104 -116 -42 -49 -81 -88 -86
-88 -5 0 -7 -4 -4 -9 3 -5 -1 -11 -9 -15 -8 -3 -15 -12 -15 -21 0 -8 -7 -15
-15 -15 -8 0 -15 -7 -15 -15 0 -8 -6 -15 -13 -15 -7 0 -29 -16 -49 -35 l-36
-35 -49 56 c-95 113 -109 130 -137 172 -16 23 -32 42 -36 42 -4 0 -10 8 -13
18 -3 9 -31 52 -62 95 l-56 77 226 0 c124 0 225 2 225 5 0 11 -39 43 -59 50
-12 3 -21 11 -21 16 0 5 -6 9 -14 9 -27 0 -172 117 -250 202 -83 89 -173 236
-200 325 -7 22 -6 22 114 25 121 3 121 3 101 23 -11 11 -49 49 -86 85 -36 36
-68 75 -71 88 -4 12 -12 22 -19 22 -17 0 -152 228 -154 259 -1 8 -12 37 -25
65 -24 50 -66 202 -66 239 0 13 -6 18 -22 15 -13 -2 -23 -7 -23 -13 -1 -5 -6
-19 -12 -30 -6 -11 -16 -53 -23 -93 -7 -46 -16 -70 -22 -65 -7 4 -9 -2 -5 -17
3 -12 2 -30 -4 -39 -5 -9 -13 -27 -19 -41 -5 -14 -14 -32 -20 -40 -5 -8 -25
-49 -45 -90 -20 -41 -49 -88 -63 -106 -15 -17 -46 -56 -70 -87 -24 -30 -68
-78 -98 -107 -30 -28 -54 -56 -54 -61 0 -5 50 -9 110 -9 128 0 126 3 81 -101
-47 -110 -181 -277 -290 -359 -18 -14 -50 -38 -70 -55 -20 -16 -55 -39 -77
-50 -38 -19 -63 -42 -64 -57 0 -5 96 -8 214 -8 l213 0 -20 -42 c-46 -96 -218
-307 -389 -478 l-101 -101 -23 22 c-13 12 -52 64 -88 115 l-65 94 179 0 c99 0
180 4 180 8 0 10 -33 42 -44 42 -4 0 -27 14 -51 30 -24 17 -47 30 -50 30 -4 0
-19 11 -34 25 -14 14 -45 42 -68 62 -24 19 -43 41 -43 48 0 8 -11 22 -25 33
-14 11 -25 23 -25 26 0 4 -12 25 -26 47 -41 65 -74 127 -74 138 0 7 33 11 90
11 108 0 115 11 45 72 -66 59 -156 183 -208 289 -42 86 -87 227 -87 271 0 12
-7 18 -23 18 -20 0 -24 -9 -41 -87 -11 -49 -34 -120 -53 -160 -18 -40 -33 -76
-33 -81 0 -19 -113 -169 -176 -232 -35 -36 -64 -71 -64 -78 0 -9 27 -12 96
-12 87 0 94 -1 80 -16 -9 -8 -16 -21 -16 -29 0 -28 -56 -118 -116 -189 -71
-84 -170 -169 -241 -207 -26 -14 -49 -33 -51 -42 -3 -15 16 -17 173 -19 l175
-3 -57 -80 c-153 -215 -422 -484 -531 -531 -70 -31 -35 -39 187 -44 l213 -5
-57 -85 c-32 -47 -78 -110 -103 -140 -63 -78 -257 -266 -335 -325 -116 -88
-130 -85 361 -86 768 -1 2055 -2 2630 0 l563 1 16 38 c14 34 17 76 10 142 -2
14 2 83 8 154 8 96 8 140 -1 175 -7 25 -15 104 -18 176 -6 121 -9 134 -41 200
-42 86 -70 225 -60 302 8 64 18 72 136 112 76 26 83 31 97 65 14 35 13 42 -7
90 -22 54 -27 96 -12 96 6 0 25 14 43 30 41 38 113 43 143 10 10 -12 25 -18
33 -15 13 5 14 -8 9 -86 -8 -127 6 -154 100 -191 37 -15 91 -45 118 -66 48
-37 50 -39 47 -83 -2 -24 -15 -101 -28 -169 -14 -69 -29 -152 -34 -185 -17
-112 -44 -218 -70 -280 -9 -22 -27 -72 -40 -112 -21 -64 -22 -77 -11 -114 7
-22 16 -65 21 -94 10 -61 36 -104 97 -159 l43 -38 1716 0 c943 0 1717 2 1720
5 11 10 -10 36 -37 46 -16 5 -29 14 -29 20 0 5 -23 23 -50 40 -61 38 -280 253
-280 275 0 9 -5 16 -11 16 -11 0 -48 40 -49 53 0 4 -25 44 -55 88 -30 44 -55
84 -55 90 0 5 84 9 205 9 189 0 205 1 205 18 0 11 -19 26 -51 42 -28 14 -95
64 -148 111 -93 83 -232 228 -240 252 -2 6 -12 18 -22 27 -10 8 -47 59 -83
113 l-65 97 180 0 c98 0 179 4 179 9 0 15 -42 44 -129 88 -48 24 -204 182
-225 229 -10 21 -28 53 -40 69 -23 32 -46 80 -46 95 0 6 40 10 90 10 84 0 90
1 90 20 0 11 -8 23 -17 27 -25 8 -93 74 -93 90 0 7 -11 20 -25 29 -14 9 -25
20 -25 25 0 4 -24 46 -54 94 -31 49 -66 122 -82 173 -16 48 -32 88 -35 90 -3
1 -4 13 -2 26 3 13 0 27 -6 30 -6 4 -11 16 -11 27 0 12 -7 19 -19 19 -15 0
-21 -15 -37 -90 -10 -49 -21 -90 -25 -90 -4 0 -14 -21 -22 -47 -24 -72 -57
-143 -75 -162 -10 -9 -24 -30 -32 -46 -8 -16 -53 -68 -99 -117 -54 -58 -78
-90 -70 -93 8 -2 51 -6 96 -7 l81 -3 -18 -37 c-9 -20 -20 -47 -23 -60 -10 -38
-131 -182 -210 -250 -70 -59 -116 -89 -159 -102 -10 -3 -18 -15 -18 -26 0 -19
6 -20 170 -20 l171 0 -27 -47 c-31 -57 -143 -203 -155 -203 -15 0 -264 252
-335 340 -39 47 -102 133 -142 193 l-72 107 220 0 c140 0 220 4 220 10 0 6 -4
10 -10 10 -5 0 -10 6 -10 14 0 8 -11 17 -25 20 -14 4 -25 11 -25 16 0 6 -7 10
-16 10 -47 0 -303 240 -349 327 -11 21 -28 45 -37 55 -10 10 -18 23 -18 30 0
6 -9 30 -19 52 -43 91 -48 86 83 86 64 0 116 3 116 8 0 11 -13 26 -40 47 -22
17 -114 116 -152 164 -21 25 -98 140 -98 145 0 2 -14 35 -32 73 -18 37 -31 72
-30 77 2 4 -4 13 -11 20 -14 10 -67 210 -67 249 0 11 -8 17 -23 17 -25 0 -38
-31 -57 -142 -7 -38 -16 -66 -20 -63 -5 3 -11 1 -14 -4 -4 -5 -1 -13 4 -16 8
-5 7 -12 -4 -23 -8 -10 -18 -30 -22 -45 -3 -16 -17 -51 -30 -78 -13 -27 -24
-53 -24 -59 0 -5 -4 -10 -10 -10 -5 0 -10 -7 -10 -15 0 -8 -4 -15 -9 -15 -5 0
-13 -10 -16 -21 -11 -33 -92 -136 -172 -219 -40 -41 -73 -78 -73 -82 0 -5 50
-8 110 -8 93 0 110 -2 110 -16 0 -20 -42 -118 -52 -122 -5 -2 -6 -8 -2 -13 3
-5 0 -9 -5 -9 -6 0 -11 -7 -11 -15 0 -8 -4 -15 -10 -15 -5 0 -10 -6 -10 -13 0
-32 -151 -198 -245 -269 -5 -4 -30 -24 -53 -43 -24 -19 -48 -35 -53 -35 -20 0
-89 -51 -89 -65 0 -13 31 -15 215 -15 l214 0 -21 -37 c-12 -21 -32 -51 -45
-66 -13 -16 -23 -33 -23 -38 0 -6 -30 -47 -66 -92 -37 -45 -69 -88 -71 -94 -9
-23 -29 -13 -84 41 -59 58 -152 163 -158 178 -1 5 -14 21 -27 35 -13 14 -24
32 -24 39 0 7 -9 18 -19 24 -19 9 -30 26 -63 90 -7 14 -21 31 -30 38 -10 7
-18 18 -18 23 0 6 -6 17 -12 24 -43 48 -57 45 212 45 171 0 250 3 250 11 0 14
-26 39 -41 39 -14 0 -83 41 -87 52 -2 4 -9 8 -15 8 -7 0 -32 18 -56 40 -25 22
-50 40 -58 40 -7 0 -13 4 -13 10 0 12 -68 80 -81 80 -5 0 -13 8 -16 17 -4 10
-19 30 -35 45 -15 15 -28 32 -28 37 0 6 -9 15 -20 21 -11 6 -22 21 -26 35 -3
13 -12 26 -20 29 -8 3 -14 12 -14 20 0 7 -6 16 -14 19 -8 3 -17 19 -21 36 -4
17 -10 31 -15 31 -4 0 -11 16 -14 35 -4 19 -11 35 -15 35 -5 0 -11 11 -13 25
l-5 25 127 0 c70 0 129 3 133 6 3 4 -41 54 -98 112 -58 57 -105 110 -105 117
0 7 -6 15 -13 18 -8 3 -23 25 -35 50 -11 24 -28 47 -36 50 -9 4 -16 13 -16 22
0 8 -5 15 -11 15 -6 0 -9 6 -6 13 2 6 -5 24 -15 40 -11 15 -16 27 -12 27 5 0
3 5 -4 12 -7 7 -12 20 -12 30 0 10 -4 18 -10 18 -5 0 -7 7 -4 15 4 9 0 15 -9
15 -10 0 -18 14 -22 40 -4 22 -10 40 -15 40 -4 0 -11 25 -15 55 -3 30 -11 57
-16 60 -5 4 -9 17 -9 30 0 13 -5 27 -11 30 -6 4 -9 23 -7 44 3 32 0 36 -23 39
-23 3 -27 -1 -32 -35z"/>
<path d="M3880 6115 c0 -8 7 -15 15 -15 9 0 12 6 9 15 -4 8 -10 15 -15 15 -5
0 -9 -7 -9 -15z"/>
<path d="M3950 6110 c-12 -8 -11 -10 8 -10 12 0 22 5 22 10 0 13 -11 13 -30 0z"/>
<path d="M4072 5366 c-21 -10 -22 -15 -16 -67 4 -37 2 -59 -5 -63 -6 -4 -14 0
-17 8 -5 12 -11 9 -31 -15 -20 -24 -23 -32 -13 -44 7 -8 18 -15 25 -15 7 0 24
-10 39 -21 16 -12 31 -18 36 -13 13 14 40 148 40 198 0 50 -11 56 -58 32z"/>
<path d="M3770 5289 c0 -63 15 -139 27 -139 4 0 14 6 22 13 22 19 102 49 110
42 9 -9 7 -115 -3 -210 -24 -228 -31 -312 -28 -332 5 -33 32 -29 32 5 0 15 7
113 15 218 19 240 18 342 -3 340 -9 -1 -19 14 -26 36 -15 51 -40 78 -73 78
-16 0 -38 3 -50 6 -22 6 -23 4 -23 -57z"/>
<path d="M415 4469 c-143 -24 -267 -108 -339 -231 -37 -63 -66 -187 -66 -277
1 -279 143 -451 399 -484 161 -20 307 14 412 97 111 87 178 230 187 396 6 116
-8 188 -54 280 -88 175 -297 260 -539 219z m203 -95 c29 -14 64 -41 78 -59
106 -139 111 -528 8 -678 -73 -108 -268 -116 -359 -15 -72 79 -100 181 -100
368 0 154 21 244 74 317 65 89 196 119 299 67z"/>
<path d="M2505 4474 c-241 -38 -402 -196 -435 -428 -33 -236 55 -434 233 -521
169 -82 400 -67 587 37 83 47 82 46 64 79 -8 16 -17 29 -20 29 -2 0 -26 -11
-53 -24 -118 -60 -284 -73 -383 -29 -143 64 -219 224 -204 429 17 238 144 365
350 352 128 -9 191 -59 227 -181 11 -40 22 -78 25 -84 2 -7 19 -13 38 -13 l35
0 -6 148 c-3 81 -6 148 -7 149 -1 1 -45 14 -96 28 -94 25 -280 40 -355 29z"/>
<path d="M4925 4469 c-143 -24 -267 -108 -339 -231 -37 -63 -66 -187 -66 -277
1 -279 143 -451 399 -484 161 -20 307 14 412 97 111 87 178 230 187 396 6 116
-8 188 -54 280 -88 175 -297 260 -539 219z m203 -95 c29 -14 64 -41 78 -59
106 -139 111 -528 8 -678 -73 -108 -268 -116 -359 -15 -72 79 -100 181 -100
368 0 154 21 244 74 317 65 89 196 119 299 67z"/>
<path d="M6045 4469 c-143 -24 -267 -108 -339 -231 -37 -63 -66 -187 -66 -277
1 -279 143 -451 399 -484 161 -20 307 14 412 97 111 87 178 230 187 396 6 116
-8 188 -54 280 -88 175 -297 260 -539 219z m203 -95 c29 -14 64 -41 78 -59
106 -139 111 -528 8 -678 -73 -108 -268 -116 -359 -15 -72 79 -100 181 -100
368 0 154 21 244 74 317 65 89 196 119 299 67z"/>
<path d="M1082 4436 c2 -15 16 -23 56 -32 93 -20 87 8 87 -430 0 -439 8 -404
-91 -424 -45 -10 -54 -15 -54 -33 l0 -22 250 0 250 0 0 22 c0 18 -9 23 -57 33
-94 20 -93 16 -93 218 l0 175 31 -7 c17 -3 35 -6 40 -6 10 0 77 -129 159 -309
l57 -123 186 -2 c186 -1 187 -1 187 21 0 18 -9 23 -53 33 -102 21 -115 35
-255 272 l-81 137 34 21 c92 57 140 149 133 258 -5 92 -42 155 -112 191 l-50
26 -313 0 c-304 0 -314 -1 -311 -19z m498 -74 c50 -26 80 -90 80 -167 -1 -123
-59 -184 -177 -185 l-53 0 0 179 c0 134 3 181 13 184 29 12 105 6 137 -11z"/>
<path d="M3060 4435 c0 -21 7 -26 45 -36 24 -6 55 -22 68 -34 25 -26 109 -244
245 -641 l87 -254 31 0 c31 0 32 2 68 103 81 229 182 489 191 488 9 0 86 -198
166 -434 53 -157 54 -158 82 -155 28 3 31 9 106 223 109 308 218 604 239 645
13 27 29 40 69 55 42 16 53 25 53 43 0 22 0 22 -170 22 l-170 0 0 -24 c0 -19
8 -27 38 -36 56 -19 72 -37 65 -74 -7 -36 -151 -474 -163 -496 -11 -19 -184
512 -175 540 6 17 57 40 93 40 6 0 12 11 12 25 l0 25 -235 0 -235 0 0 -24 c0
-20 8 -27 50 -41 57 -19 78 -44 109 -131 l22 -61 -71 -189 c-39 -104 -74 -192
-78 -196 -4 -4 -47 116 -96 267 -97 303 -97 295 -25 317 31 9 39 16 39 35 l0
23 -230 0 -230 0 0 -25z"/>
<path d="M6720 4433 c0 -18 8 -22 52 -28 34 -5 59 -15 75 -31 l23 -23 0 -376
0 -376 -24 -24 c-16 -16 -41 -26 -75 -31 -43 -6 -51 -10 -51 -28 0 -21 1 -21
303 -20 335 1 361 4 471 62 141 74 237 203 270 365 54 258 -48 463 -259 523
-16 4 -200 8 -407 9 l-378 0 0 -22z m631 -69 c114 -34 185 -148 196 -314 11
-170 -28 -311 -111 -396 -67 -69 -130 -89 -258 -82 -49 3 -92 9 -96 12 -9 10
-16 672 -7 741 l6 55 108 0 c70 0 126 -6 162 -16z"/>
<path d="M7555 3405 c-16 -8 -40 -14 -51 -15 -19 0 -23 -9 -33 -67 -37 -214
-146 -570 -246 -798 -257 -592 -653 -1092 -1160 -1468 -141 -105 -183 -130
-250 -152 -27 -10 -75 -32 -105 -50 -30 -18 -84 -43 -120 -55 -94 -33 -114
-44 -157 -95 -47 -55 -161 -107 -418 -189 -278 -89 -330 -101 -385 -90 -54 11
-94 3 -124 -25 -54 -51 -584 -87 -890 -61 -1044 88 -2035 631 -2622 1434 -41
56 -87 119 -103 141 -48 65 -156 246 -220 367 -131 247 -255 580 -323 860 -27
114 -36 138 -53 142 -42 12 -83 5 -117 -17 -19 -13 -55 -32 -81 -42 -109 -41
-110 -121 -3 -196 37 -27 47 -40 60 -89 9 -32 35 -86 58 -121 22 -35 56 -98
75 -139 32 -68 34 -80 29 -145 -2 -38 -8 -89 -11 -112 -8 -45 -16 -34 109
-148 l36 -33 -6 -74 c-5 -54 -3 -81 7 -100 16 -29 210 -233 252 -263 l27 -20
-20 -44 c-39 -85 -17 -127 90 -172 58 -24 165 -99 188 -131 8 -10 22 -26 32
-36 10 -9 20 -28 22 -42 2 -20 19 -33 87 -67 116 -58 115 -57 116 -161 0 -80
3 -93 28 -131 21 -31 43 -49 83 -67 30 -13 63 -24 73 -24 11 0 43 -18 72 -40
67 -51 119 -68 155 -52 49 23 64 16 64 -27 0 -59 30 -87 120 -112 65 -18 80
-26 115 -66 38 -43 44 -46 94 -47 50 -1 54 -3 70 -35 23 -43 54 -60 113 -61
58 0 78 -8 78 -29 0 -22 113 -150 159 -179 33 -22 43 -23 121 -17 47 4 95 7
106 6 37 -1 114 -39 177 -87 97 -74 107 -75 257 -22 24 8 219 -14 241 -28 5
-3 9 -16 9 -30 0 -46 32 -64 112 -64 86 0 128 21 200 99 52 57 56 57 148 20
51 -20 156 -39 218 -39 32 0 49 7 75 30 41 35 46 36 95 11 56 -28 186 -38 236
-17 48 20 79 20 116 1 33 -17 52 -12 94 23 25 20 36 23 70 17 23 -3 67 -8 98
-11 54 -5 60 -4 87 23 16 16 37 53 47 82 l19 53 52 -6 c67 -8 101 8 123 57 11
23 37 52 65 73 45 32 49 33 76 19 15 -8 39 -15 53 -15 14 0 28 -4 31 -10 3 -5
20 -10 36 -10 35 0 118 64 150 117 13 21 29 33 42 33 33 0 170 46 209 70 18
11 43 20 56 20 36 0 90 27 137 68 25 22 74 57 111 78 37 21 89 60 117 86 l50
47 -7 50 -7 51 67 47 c37 27 86 63 108 80 61 48 140 87 237 117 113 34 119 42
114 138 -4 76 -4 76 24 88 16 6 58 39 93 71 34 33 80 69 101 80 44 23 61 58
52 110 -6 36 -6 37 32 43 39 8 153 65 187 94 43 38 58 98 55 210 l-4 106 52
40 c32 26 63 63 84 100 27 51 32 69 31 124 -2 79 31 157 91 216 39 38 39 38
35 107 -3 53 -8 73 -26 92 -12 13 -22 26 -22 30 0 4 36 46 80 94 45 49 93 113
108 143 46 96 28 180 -40 180 -18 0 -28 5 -28 14 0 8 -12 24 -26 35 -31 24
-93 27 -139 6z"/>
<path d="M5784 3323 c-9 -21 -35 -81 -59 -133 -55 -121 -99 -240 -92 -247 16
-16 38 14 66 89 17 46 43 104 57 130 37 69 83 186 76 192 -15 15 -34 3 -48
-31z"/>
<path d="M6270 3249 c-34 -61 -84 -136 -112 -166 -47 -52 -118 -184 -118 -219
0 -7 7 -14 15 -14 9 0 32 35 56 83 22 45 58 100 80 122 43 45 169 259 169 287
0 43 -32 10 -90 -93z"/>
<path d="M6711 3342 c-5 -10 -23 -52 -39 -93 -17 -41 -42 -99 -56 -129 -14
-30 -26 -65 -26 -77 0 -41 27 -24 50 30 69 164 109 270 104 278 -8 14 -22 11
-33 -9z"/>
<path d="M7152 3348 c-5 -7 -33 -60 -62 -118 -29 -58 -65 -123 -80 -145 -43
-63 -70 -132 -90 -232 -11 -51 -30 -114 -43 -140 -28 -56 -54 -200 -39 -215
16 -16 39 30 46 92 4 30 18 77 33 104 14 28 34 93 44 145 13 66 32 121 60 176
133 260 159 312 159 328 0 20 -13 22 -28 5z"/>
<path d="M7300 3341 c-5 -11 -10 -35 -10 -54 0 -44 -34 -207 -55 -267 -9 -25
-34 -75 -56 -112 -48 -79 -58 -117 -59 -213 0 -86 -24 -142 -99 -235 -60 -74
-103 -154 -137 -254 -13 -38 -36 -85 -51 -105 -65 -87 -123 -148 -193 -203
-106 -84 -334 -310 -396 -393 -54 -73 -93 -112 -156 -158 -20 -15 -64 -67 -97
-115 -59 -86 -128 -149 -186 -172 -17 -7 -61 -21 -100 -32 -38 -11 -108 -39
-155 -64 -112 -58 -323 -154 -338 -154 -20 0 -122 -45 -192 -85 -36 -21 -82
-43 -103 -51 -22 -8 -52 -25 -67 -38 -37 -31 -60 -34 -430 -52 -681 -34 -629
-30 -782 -60 -70 -14 -86 -14 -161 0 -46 9 -101 16 -123 16 -21 0 -82 16 -134
36 -222 82 -273 99 -425 136 -266 66 -465 128 -533 167 -137 79 -316 191 -394
248 -46 34 -110 77 -142 96 -32 19 -99 75 -150 124 -70 68 -105 113 -153 194
-64 108 -112 163 -268 304 -121 109 -193 211 -241 336 -21 55 -52 116 -69 137
-45 52 -92 139 -111 203 -9 30 -42 104 -74 164 -32 61 -65 141 -74 180 -10 39
-28 90 -42 114 -32 59 -92 209 -96 244 -4 39 -22 39 -26 0 -3 -34 49 -178 93
-255 14 -24 32 -77 41 -118 11 -49 36 -113 74 -185 32 -60 64 -130 70 -155 16
-59 63 -152 110 -214 21 -28 43 -69 50 -91 26 -81 70 -166 125 -239 54 -72
217 -236 235 -236 16 0 115 -131 171 -225 77 -130 194 -246 352 -353 360 -244
521 -339 626 -372 36 -12 93 -30 126 -40 33 -11 137 -37 230 -59 157 -37 254
-68 475 -151 135 -51 358 -71 490 -45 85 18 165 23 625 45 344 16 519 34 553
57 60 41 301 162 355 177 32 9 93 34 135 55 42 21 93 44 112 51 19 8 71 33
115 56 44 23 109 50 145 59 140 36 218 93 307 226 35 51 69 87 105 113 31 21
79 69 109 109 75 99 298 326 395 402 83 66 190 179 237 250 15 22 36 67 47
100 30 87 76 172 127 235 89 109 123 197 123 320 0 60 4 73 42 136 53 88 74
144 98 258 29 144 34 195 20 211 -17 20 -27 19 -40 -4z"/>
<path d="M5580 3308 c-10 -24 -33 -92 -50 -153 -32 -110 -61 -178 -80 -190
-13 -8 -13 -45 0 -45 20 0 71 86 91 154 11 39 34 112 50 161 16 50 29 96 29
103 0 26 -22 10 -40 -30z"/>
<path d="M6536 3338 c-2 -7 -10 -35 -17 -63 -16 -67 -39 -111 -117 -228 -50
-76 -62 -101 -53 -110 16 -15 48 23 129 153 60 97 96 189 90 230 -3 26 -26 39
-32 18z"/>
<path d="M6905 3338 c-2 -7 -11 -40 -20 -72 -16 -59 -63 -181 -92 -243 -16
-35 -11 -69 8 -57 31 19 156 340 145 370 -7 17 -35 18 -41 2z"/>
<path d="M6003 3232 c-28 -59 -70 -152 -93 -207 -23 -55 -46 -104 -51 -109
-14 -15 -11 -46 5 -46 10 0 96 165 96 187 0 3 27 61 60 128 33 67 60 130 60
139 0 42 -30 6 -77 -92z"/>
<path d="M3104 3307 c-7 -18 7 -38 134 -204 101 -132 161 -193 191 -193 32 0
33 16 3 36 -40 26 -83 75 -193 220 -113 150 -126 163 -135 141z"/>
<path d="M2880 3293 c0 -20 66 -150 90 -178 10 -11 30 -46 46 -78 32 -66 51
-87 59 -65 7 18 -40 118 -80 174 -17 22 -43 68 -59 102 -28 59 -56 81 -56 45z"/>
<path d="M2700 3276 c0 -29 53 -150 84 -191 12 -16 35 -52 51 -80 35 -62 55
-86 66 -79 10 6 -40 108 -85 174 -18 26 -47 81 -66 123 -34 79 -50 95 -50 53z"/>
<path d="M4494 3268 c-28 -54 -77 -108 -193 -213 -61 -55 -111 -106 -111 -112
0 -36 50 -3 171 114 121 117 169 179 169 217 0 29 -19 26 -36 -6z"/>
<path d="M4697 3293 c-5 -9 -31 -100 -41 -147 -4 -16 -33 -54 -64 -85 -102
-102 -125 -130 -118 -146 3 -8 9 -15 14 -15 4 0 49 45 101 100 92 99 93 101
117 191 13 50 24 95 24 100 0 11 -27 12 -33 2z"/>
<path d="M4881 3258 c-10 -24 -32 -72 -48 -108 -17 -36 -38 -89 -47 -118 -10
-29 -26 -57 -37 -62 -24 -13 -25 -40 -1 -40 25 0 57 37 72 84 7 22 32 84 56
138 24 54 44 107 44 118 0 37 -20 31 -39 -12z"/>
<path d="M5132 3293 c-7 -3 -33 -44 -57 -91 -56 -109 -149 -259 -183 -294 -14
-15 -23 -31 -19 -35 15 -14 58 19 90 69 19 29 50 78 70 109 49 78 119 218 115
233 -2 7 -9 11 -16 9z"/>
<path d="M5380 3281 c-5 -11 -24 -57 -40 -103 -17 -46 -53 -122 -80 -169 -47
-81 -62 -129 -41 -129 15 0 107 159 136 235 14 39 35 93 46 120 10 28 19 54
19 58 0 15 -30 6 -40 -12z"/>
<path d="M4113 3260 c-49 -37 -166 -64 -227 -55 -23 4 -65 18 -94 32 -28 15
-55 23 -59 19 -13 -13 13 -41 59 -64 89 -45 262 -29 341 32 75 57 56 92 -20
36z"/>
<path d="M3344 3255 c-10 -24 97 -164 160 -209 22 -16 62 -49 88 -73 41 -37
78 -55 78 -37 0 15 -81 99 -130 133 -33 23 -77 69 -110 114 -58 80 -77 96 -86
72z"/>
<path d="M4257 3195 c-87 -95 -129 -119 -246 -141 -119 -21 -195 -15 -259 21
-78 45 -148 103 -176 145 -26 40 -56 53 -56 25 0 -46 86 -131 210 -206 55 -34
56 -34 175 -33 215 1 296 40 422 201 23 30 26 63 6 63 -5 0 -39 -34 -76 -75z"/>
<path d="M2120 3239 c-149 -32 -270 -43 -452 -41 l-177 1 -58 -43 c-211 -155
-433 -617 -433 -900 0 -55 4 -65 38 -108 65 -81 161 -149 294 -210 l57 -26 84
18 c103 23 222 62 288 95 46 24 50 24 56 8 23 -68 69 -146 103 -177 22 -20 44
-36 49 -36 5 0 16 19 24 43 8 23 49 143 91 265 43 123 87 247 100 276 l23 53
-136 11 c-75 7 -164 18 -198 25 -72 15 -68 20 -79 -96 l-7 -67 -41 -11 c-23
-6 -89 -24 -149 -40 -59 -16 -112 -29 -117 -29 -16 0 -12 49 15 155 36 150 81
254 168 397 l41 66 60 -55 c97 -88 317 -235 332 -221 2 3 13 56 25 119 30 168
78 371 125 532 7 21 -10 21 -126 -4z"/>
<path d="M1194 3204 c7 -54 34 -116 47 -108 10 6 5 47 -12 117 -6 23 -16 37
-26 37 -13 0 -15 -8 -9 -46z"/>
<path d="M994 3198 c3 -19 31 -88 61 -154 30 -65 55 -127 55 -136 0 -28 19
-31 26 -3 7 29 -12 85 -59 180 -17 33 -36 78 -42 100 -7 24 -19 41 -30 43 -15
3 -17 -1 -11 -30z"/>
<path d="M2445 3208 c3 -13 10 -36 15 -53 12 -45 21 -63 75 -153 27 -45 55
-82 62 -82 17 0 18 -1 -21 83 -18 41 -41 77 -49 80 -9 3 -21 25 -28 49 -20 75
-31 98 -46 98 -11 0 -13 -6 -8 -22z"/>
<path d="M800 3186 c0 -39 33 -133 76 -216 15 -30 44 -102 64 -159 37 -106 60
-138 60 -84 0 35 -48 170 -90 253 -17 33 -44 99 -60 147 -31 95 -50 116 -50
59z"/>
<path d="M2326 3133 c3 -32 10 -65 14 -73 4 -8 10 -40 14 -70 8 -61 35 -113
72 -137 36 -23 37 -13 4 36 -16 24 -32 60 -35 80 -13 78 -38 187 -47 204 -19
36 -29 17 -22 -40z"/>
<path d="M635 3160 c-10 -16 5 -126 25 -186 10 -28 39 -91 64 -139 25 -48 46
-93 46 -100 0 -14 139 -224 173 -262 21 -24 37 -30 37 -14 0 13 -95 167 -132
213 -16 20 -37 61 -47 90 -10 29 -33 76 -50 103 -38 59 -81 190 -81 244 0 40
-22 72 -35 51z"/>
<path d="M6528 2929 c-194 -23 -379 -92 -469 -176 -77 -72 -103 -130 -104
-230 0 -73 2 -84 25 -108 48 -52 109 -74 252 -91 191 -23 184 -21 163 -44 -30
-33 -83 -45 -205 -43 -85 1 -143 7 -220 26 -58 14 -107 23 -109 21 -17 -16 89
-284 141 -356 21 -30 22 -30 85 -24 301 31 551 139 628 271 56 95 39 186 -45
237 -44 27 -74 36 -245 73 -111 24 -195 68 -195 102 0 10 18 12 88 7 126 -8
317 -32 391 -50 35 -8 65 -13 66 -12 2 2 -10 91 -26 198 -16 107 -29 198 -29
203 0 9 -92 7 -192 -4z"/>
<path d="M2990 2870 c-17 -33 -31 -60 -33 -60 -1 0 -20 7 -42 15 -53 19 -166
19 -240 0 -186 -49 -342 -206 -416 -418 -37 -105 -40 -209 -8 -274 52 -108
167 -193 262 -193 62 0 144 42 221 113 l55 52 21 -53 c24 -58 77 -109 131
-128 31 -10 42 -7 129 33 52 24 98 47 102 51 4 4 -1 50 -12 102 -12 58 -20
135 -20 198 0 91 3 107 24 140 39 62 82 154 101 214 l18 56 -31 43 c-39 53
-112 113 -174 145 -26 13 -50 24 -53 24 -2 0 -18 -27 -35 -60z m-113 -262
c-37 -98 -77 -242 -77 -277 0 -47 -118 -140 -197 -154 -27 -5 -32 -3 -37 17
-23 93 96 329 215 426 56 45 122 90 127 86 2 -3 -12 -46 -31 -98z"/>
<path d="M3590 2864 c-80 -18 -155 -36 -167 -39 -21 -5 -23 -11 -23 -68 0 -89
-27 -361 -55 -566 -14 -96 -24 -175 -22 -176 3 -2 335 -85 341 -85 2 0 7 62
11 137 l7 137 55 107 c51 100 151 237 181 247 9 3 12 -20 12 -91 0 -103 -25
-266 -64 -416 l-25 -94 127 7 c70 3 152 12 182 19 l54 12 24 170 c13 94 30
184 38 200 17 36 100 134 144 172 26 22 33 24 41 12 19 -28 -5 -216 -53 -416
-22 -92 -22 -93 -2 -108 55 -44 175 -89 291 -109 30 -5 33 -3 37 27 2 18 12
86 21 151 19 141 66 329 100 404 l25 53 -41 82 c-79 157 -160 237 -238 237
-80 0 -218 -100 -308 -222 l-36 -50 -18 70 c-20 80 -55 166 -74 182 -19 16
-109 -5 -193 -45 -78 -37 -172 -118 -224 -193 -17 -24 -31 -42 -33 -40 -2 2 9
76 24 166 18 106 24 162 17 161 -6 0 -76 -16 -156 -35z"/>
<path d="M5553 2868 c-88 -42 -251 -87 -365 -101 l-98 -11 -54 -111 c-30 -60
-68 -150 -85 -200 -30 -91 -71 -273 -71 -318 0 -94 353 -276 487 -251 160 30
310 119 368 218 27 47 48 130 40 156 -5 17 -10 16 -68 -10 -108 -50 -232 -82
-346 -87 l-104 -6 6 33 c4 18 7 36 7 40 0 4 27 11 61 14 196 23 413 147 479
276 30 58 22 121 -25 217 -34 70 -130 174 -158 172 -7 0 -40 -14 -74 -31z
m-61 -285 c42 -38 0 -143 -82 -202 -38 -27 -96 -49 -105 -39 -3 2 14 61 37
131 l43 127 44 0 c27 0 51 -6 63 -17z"/>
<path d="M5823 2048 c-6 -7 -17 -35 -26 -61 -9 -26 -27 -62 -41 -78 -14 -16
-41 -60 -61 -98 -20 -38 -46 -78 -58 -88 -51 -46 -345 -233 -365 -233 -6 0
-32 -16 -58 -36 -87 -67 -223 -114 -329 -114 -33 0 -86 -10 -128 -24 -63 -21
-98 -25 -277 -31 -113 -4 -250 -11 -305 -16 -198 -20 -361 -22 -488 -5 -67 8
-169 18 -227 20 -82 4 -145 15 -285 52 -99 25 -224 57 -278 69 -53 13 -112 32
-130 43 -17 11 -77 34 -132 51 -55 17 -131 49 -168 71 -37 23 -87 48 -109 56
-44 15 -107 58 -122 82 -17 29 -129 147 -139 147 -26 0 -15 -29 30 -77 27 -29
64 -72 82 -96 24 -31 55 -53 114 -82 45 -22 115 -58 156 -80 41 -21 106 -49
145 -60 39 -12 91 -33 116 -46 25 -13 95 -37 155 -53 61 -16 182 -47 270 -71
129 -34 192 -45 325 -56 91 -7 199 -18 240 -24 80 -13 291 -8 450 8 52 6 190
14 305 17 185 6 219 10 282 31 43 14 95 24 130 24 96 0 259 53 320 104 15 13
55 38 88 55 158 84 338 204 384 257 19 21 40 54 48 73 8 20 33 60 55 89 40 54
82 156 74 179 -7 17 -31 17 -43 1z"/>
<path d="M2237 1925 c-4 -8 -3 -23 0 -32 12 -31 93 -141 121 -165 52 -43 361
-150 556 -193 65 -14 161 -44 212 -65 140 -60 252 -76 429 -63 153 12 616 1
695 -16 27 -6 153 -7 319 -4 l273 6 87 57 c125 82 171 108 232 129 66 22 153
65 194 95 17 12 50 34 75 48 80 47 159 138 119 138 -6 0 -32 -17 -58 -39 -25
-21 -61 -46 -80 -56 -19 -9 -51 -29 -71 -44 -40 -28 -147 -79 -222 -106 -26
-9 -103 -52 -170 -94 l-123 -78 -257 -6 c-194 -4 -280 -2 -350 8 -87 13 -213
15 -783 12 -116 -1 -179 13 -290 60 -44 19 -145 50 -225 68 -80 19 -177 45
-215 58 -39 14 -95 33 -125 42 -30 9 -87 32 -126 50 -66 30 -76 39 -130 115
-62 87 -78 101 -87 75z"/>
<path d="M5907 1847 c-39 -69 -215 -246 -353 -356 -44 -34 -96 -75 -116 -92
-21 -16 -67 -43 -103 -59 -36 -16 -86 -43 -110 -60 -58 -40 -350 -140 -407
-140 -57 0 -238 -27 -313 -47 -94 -26 -656 -20 -769 7 -158 37 -303 58 -436
63 -74 3 -148 11 -165 17 -16 6 -68 18 -115 26 -92 16 -158 43 -260 104 -42
25 -101 49 -165 65 -250 65 -299 91 -451 240 -69 67 -104 95 -119 93 -32 -5
-20 -39 32 -83 25 -22 76 -70 112 -106 87 -86 167 -127 357 -179 99 -27 168
-52 204 -74 105 -64 162 -87 263 -107 56 -10 116 -24 133 -29 17 -6 105 -15
195 -19 149 -8 218 -19 434 -66 99 -21 678 -22 751 -1 27 8 72 18 99 21 28 4
85 13 129 21 43 8 95 14 115 14 56 0 343 102 404 144 29 19 72 42 96 51 76 26
260 172 434 343 93 91 124 129 152 185 32 64 36 87 15 87 -4 0 -24 -28 -43
-63z"/>
<path d="M4981 1855 c-37 -30 -52 -35 -95 -35 -30 0 -69 -9 -96 -21 -25 -12
-57 -25 -72 -29 -46 -14 -670 17 -818 40 -48 8 -126 10 -215 6 -146 -6 -229 5
-291 37 -33 17 -61 9 -51 -17 3 -8 25 -25 49 -37 40 -21 63 -23 293 -30 138
-4 270 -12 295 -18 25 -6 83 -10 130 -11 47 0 117 -5 155 -10 39 -5 158 -10
265 -12 195 -2 195 -2 255 25 33 16 88 32 123 36 56 7 67 12 107 51 42 41 49
60 22 60 -7 0 -32 -16 -56 -35z"/>
<path d="M1540 1856 c0 -17 141 -174 191 -213 20 -15 48 -44 62 -63 14 -19 56
-70 93 -113 38 -42 84 -95 103 -117 49 -58 163 -125 281 -165 56 -19 130 -50
164 -69 35 -20 114 -49 177 -66 63 -17 148 -46 189 -65 94 -42 155 -56 239
-54 40 1 83 -5 110 -15 24 -9 80 -20 125 -26 175 -20 303 -39 328 -49 109 -41
533 -5 649 55 l54 29 280 1 c273 1 282 1 380 28 174 48 286 91 415 160 252
133 422 268 505 401 25 41 129 166 193 232 54 57 63 79 36 90 -12 4 -35 -13
-78 -59 -77 -82 -173 -198 -199 -240 -50 -83 -158 -182 -307 -281 -102 -68
-307 -172 -395 -200 -263 -85 -231 -80 -560 -87 -292 -5 -301 -6 -345 -29 -28
-15 -95 -33 -175 -47 -169 -31 -335 -32 -460 -5 -49 11 -153 27 -230 36 -77 8
-169 25 -204 37 -46 15 -76 19 -113 15 -67 -8 -133 6 -231 49 -45 20 -125 47
-177 60 -52 14 -135 44 -185 68 -49 24 -121 54 -160 66 -131 43 -266 124 -300
183 -36 61 -425 467 -447 467 -4 0 -8 -6 -8 -14z"/>
<path d="M2709 1833 c-12 -13 -8 -20 25 -49 43 -37 73 -48 191 -69 225 -39
305 -56 360 -74 121 -38 394 -57 540 -37 46 6 93 3 195 -13 86 -14 177 -22
252 -21 64 0 128 -4 142 -10 14 -5 85 -14 157 -20 121 -10 138 -9 211 10 170
44 448 216 448 277 0 22 -21 14 -57 -22 -19 -19 -64 -51 -101 -71 -37 -20 -98
-54 -137 -75 -38 -21 -101 -48 -140 -60 -62 -19 -85 -21 -195 -15 -69 3 -147
13 -175 22 -38 12 -71 14 -136 9 -64 -5 -118 -1 -213 14 -129 21 -264 26 -347
12 -72 -12 -360 20 -442 49 -30 11 -108 29 -173 40 -66 12 -153 28 -195 35
-81 14 -142 36 -153 54 -15 24 -43 31 -57 14z"/>
<path d="M6285 1793 c-25 -31 -53 -70 -62 -87 -8 -17 -40 -63 -70 -103 -42
-54 -62 -72 -86 -77 -41 -8 -60 -25 -128 -112 -114 -147 -272 -266 -446 -335
-53 -22 -124 -57 -157 -78 -38 -24 -78 -41 -106 -44 -25 -3 -79 -22 -120 -41
-62 -29 -94 -38 -180 -46 -58 -6 -132 -16 -165 -22 -65 -11 -144 -21 -296 -37
-115 -12 -206 -32 -280 -62 -45 -18 -83 -23 -224 -29 -93 -4 -186 -13 -205
-19 -19 -6 -69 -11 -110 -11 -64 0 -90 6 -164 36 -110 44 -241 72 -371 80
-119 7 -189 18 -270 44 -33 11 -85 26 -115 34 -30 8 -89 27 -130 44 -172 69
-267 111 -300 130 -19 11 -72 32 -118 47 -102 33 -177 87 -297 213 -49 52
-124 117 -165 145 -87 59 -108 80 -165 166 -24 35 -65 78 -92 97 -26 19 -62
51 -79 71 -21 24 -37 34 -48 30 -28 -11 -18 -36 32 -82 113 -106 140 -134 183
-196 34 -48 65 -77 120 -113 42 -28 121 -96 184 -160 125 -128 205 -185 302
-216 37 -12 91 -33 118 -47 114 -58 368 -159 460 -184 39 -10 104 -28 145 -39
42 -12 131 -25 200 -30 159 -11 257 -32 388 -81 91 -34 116 -39 187 -39 45 0
104 6 131 14 28 8 115 16 204 19 129 4 164 8 210 26 85 35 157 51 270 62 58 5
148 16 200 24 52 8 138 19 190 25 146 15 209 29 273 61 32 17 84 35 115 40 36
7 79 25 117 49 33 21 105 58 160 81 175 74 342 202 450 344 62 83 68 89 117
104 40 13 117 102 158 181 12 24 42 70 66 103 40 55 47 77 24 77 -5 0 -30 -25
-55 -57z"/>
</g>
</svg>
